# MagicaVoxel @ Ephtracy

# group
o 

# material
mtllib N2.mtl
usemtl palette

# normals
vn -1 0 0
vn 1 0 0
vn 0 0 1
vn 0 0 -1
vn 0 -1 0
vn 0 1 0

# texcoords
vt 0.306641 0.5

# verts
v -0.1 0 -0.1
v -0.1 0 -0.2
v -0.1 0.1 -0.1
v -0.1 0.1 -0.2
v -0.1 0.2 0
v -0.1 0.2 -0.1
v -0.1 0.3 0
v -0.1 0.3 -0.1
v 0.1 0.1 0
v 0.1 0.1 -0.1
v 0.1 0.1 -0.2
v 0.1 0.2 0
v 0.1 0.2 -0.1
v 0.1 0.3 -0.1
v 0.1 0.3 -0.2
v 0.2 0 -0.1
v 0.2 0 -0.2
v 0.2 0.1 0
v 0.2 0.1 -0.1
v 0.2 0.3 0
v 0.2 0.3 -0.2
v -0.1 0.2 0
v -0.1 0.3 0
v 0.1 0.1 0
v 0.1 0.2 0
v 0.2 0.1 0
v 0.2 0.3 0
v -0.1 0 -0.1
v -0.1 0.1 -0.1
v 0.1 0.1 -0.1
v 0.2 0 -0.1
v 0.2 0.1 -0.1
v -0.1 0.2 -0.1
v -0.1 0.3 -0.1
v 0.1 0.2 -0.1
v 0.1 0.3 -0.1
v -0.1 0 -0.2
v -0.1 0.1 -0.2
v 0.1 0.1 -0.2
v 0.1 0.3 -0.2
v 0.2 0 -0.2
v 0.2 0.3 -0.2
v -0.1 0 -0.1
v 0.2 0 -0.1
v -0.1 0 -0.2
v 0.2 0 -0.2
v 0.1 0.1 0
v 0.2 0.1 0
v 0.1 0.1 -0.1
v 0.2 0.1 -0.1
v -0.1 0.2 0
v 0.1 0.2 0
v -0.1 0.2 -0.1
v 0.1 0.2 -0.1
v -0.1 0.1 -0.1
v 0.1 0.1 -0.1
v -0.1 0.1 -0.2
v 0.1 0.1 -0.2
v -0.1 0.3 0
v 0.2 0.3 0
v -0.1 0.3 -0.1
v 0.1 0.3 -0.1
v 0.1 0.3 -0.2
v 0.2 0.3 -0.2

# faces
f 3/1/1 2/1/1 1/1/1
f 4/1/1 2/1/1 3/1/1
f 7/1/1 6/1/1 5/1/1
f 8/1/1 6/1/1 7/1/1
f 12/1/1 10/1/1 9/1/1
f 12/1/1 11/1/1 10/1/1
f 13/1/1 11/1/1 12/1/1
f 14/1/1 11/1/1 13/1/1
f 15/1/1 11/1/1 14/1/1
f 16/1/2 17/1/2 19/1/2
f 18/1/2 19/1/2 20/1/2
f 19/1/2 17/1/2 21/1/2
f 20/1/2 19/1/2 21/1/2
f 25/1/3 23/1/3 22/1/3
f 26/1/3 25/1/3 24/1/3
f 27/1/3 23/1/3 25/1/3
f 27/1/3 25/1/3 26/1/3
f 30/1/3 29/1/3 28/1/3
f 31/1/3 30/1/3 28/1/3
f 32/1/3 30/1/3 31/1/3
f 33/1/4 34/1/4 35/1/4
f 35/1/4 34/1/4 36/1/4
f 37/1/4 38/1/4 39/1/4
f 37/1/4 39/1/4 41/1/4
f 39/1/4 40/1/4 41/1/4
f 41/1/4 40/1/4 42/1/4
f 45/1/5 44/1/5 43/1/5
f 46/1/5 44/1/5 45/1/5
f 49/1/5 48/1/5 47/1/5
f 50/1/5 48/1/5 49/1/5
f 53/1/5 52/1/5 51/1/5
f 54/1/5 52/1/5 53/1/5
f 55/1/6 56/1/6 57/1/6
f 57/1/6 56/1/6 58/1/6
f 59/1/6 60/1/6 61/1/6
f 61/1/6 60/1/6 62/1/6
f 62/1/6 60/1/6 63/1/6
f 63/1/6 60/1/6 64/1/6
